<svg xmlns="http://www.w3.org/2000/svg" viewBox="0 0 24 24" height="24" width="24"
     id="Multiple-Users-3--Streamline-Ultimate.svg">
    <desc>Multiple Users 3 Streamline Icon: https://streamlinehq.com</desc>
    <g>
        <path d="M15.29 17.67a1.12 1.12 0 0 0 0 -1.57l-2 -2a0.55 0.55 0 0 1 -0.16 -0.39v-2.1a1.11 1.11 0 0 0 -2.22 0v2.09a0.55 0.55 0 0 1 -0.16 0.39l-2 2a1.11 1.11 0 0 0 1.58 1.57l1.51 -1.51a0.28 0.28 0 0 1 0.4 0l1.51 1.51a1.11 1.11 0 0 0 1.54 0.01Z"
              fill="#607B96" stroke-width="1"></path>
        <path d="M9.8 2.2a2.2 2.2 0 1 0 4.4 0 2.2 2.2 0 1 0 -4.4 0" fill="#607B96" stroke-width="1"></path>
        <path d="M12 5a4.49 4.49 0 0 0 -4.26 3.09 0.28 0.28 0 0 0 0 0.28 0.31 0.31 0 0 0 0.26 0.13h8a0.3 0.3 0 0 0 0.25 -0.13 0.32 0.32 0 0 0 0.05 -0.28A4.5 4.5 0 0 0 12 5Z"
              fill="#607B96" stroke-width="1"></path>
        <path d="M17.52 17.7a2.2 2.2 0 1 0 4.4 0 2.2 2.2 0 1 0 -4.4 0" fill="#607B96" stroke-width="1"></path>
        <path d="M19.72 20.5a4.5 4.5 0 0 0 -4.27 3.09 0.32 0.32 0 0 0 0.05 0.28 0.3 0.3 0 0 0 0.25 0.13h7.94a0.31 0.31 0 0 0 0.25 -0.13 0.28 0.28 0 0 0 0 -0.28 4.49 4.49 0 0 0 -4.22 -3.09Z"
              fill="#607B96" stroke-width="1"></path>
        <path d="M2.08 17.7a2.2 2.2 0 1 0 4.4 0 2.2 2.2 0 1 0 -4.4 0" fill="#607B96" stroke-width="1"></path>
        <path d="M4.28 20.5A4.49 4.49 0 0 0 0 23.59a0.28 0.28 0 0 0 0 0.28 0.31 0.31 0 0 0 0.31 0.13h7.94a0.3 0.3 0 0 0 0.25 -0.13 0.32 0.32 0 0 0 0.05 -0.28 4.5 4.5 0 0 0 -4.27 -3.09Z"
              fill="#607B96" stroke-width="1"></path>
    </g>
</svg>