<svg xmlns="http://www.w3.org/2000/svg" viewBox="0 0 24 24" height="24" width="24"
     id="Python-Logo--Streamline-Ultimate.svg">
    <desc>Python Logo Streamline Icon: https://streamlinehq.com</desc>
    <g>
        <path d="m23 7.84 -0.16 -0.21A1.5 1.5 0 0 0 21.57 7H20v1a5 5 0 0 1 -5 5H9a3 3 0 0 0 -3 3v5.57a1.5 1.5 0 0 0 0.63 1.22C7.41 23.34 9 24 12 24s4.59 -0.66 5.37 -1.21a1.52 1.52 0 0 0 0.63 -1.22V18.5h-3.25a0.75 0.75 0 0 1 0 -1.5h6.82a1.5 1.5 0 0 0 1.22 -0.63l0.16 -0.21c0.47 -0.6 1.05 -1.35 1.05 -4.16s-0.58 -3.56 -1 -4.16ZM14 20a1 1 0 1 1 -1 1 1 1 0 0 1 1 -1Z"
              fill="#607B96" stroke-width="1"></path>
        <path d="M4 16a5 5 0 0 1 5 -5h6a3 3 0 0 0 3 -3V2.43a1.52 1.52 0 0 0 -0.63 -1.23C16.59 0.65 15 0 12 0S7.41 0.66 6.63 1.21A1.5 1.5 0 0 0 6 2.43V5.5h3.25a0.75 0.75 0 0 1 0 1.5H2.43a1.5 1.5 0 0 0 -1.22 0.63l-0.16 0.21C0.58 8.44 0 9.19 0 12s0.58 3.56 1.05 4.16l0.16 0.21a1.5 1.5 0 0 0 1.22 0.63H4ZM9 3a1 1 0 1 1 1 1 1 1 0 0 1 -1 -1Z"
              fill="#607B96" stroke-width="1"></path>
    </g>
</svg>