<svg xmlns="http://www.w3.org/2000/svg" viewBox="0 0 24 24" height="24" width="24"
     id="Figma-Logo--Streamline-Ultimate.svg">
    <g>
        <path d="M7.75 15.75h3.75v-7.5H7.75a3.75 3.75 0 0 0 0 7.5Z" fill="#607B96" stroke-width="1"></path>
        <path d="M7.75 7.5h3.75V0H7.75a3.75 3.75 0 0 0 0 7.5Z" fill="#607B96" stroke-width="1"></path>
        <path d="M20 3.75A3.75 3.75 0 0 0 16.25 0H12.5v7.5h3.75A3.75 3.75 0 0 0 20 3.75Z" fill="#607B96"
              stroke-width="1"></path>
        <path d="M12.5 12a3.75 3.75 0 1 0 7.5 0 3.75 3.75 0 1 0 -7.5 0" fill="#607B96" stroke-width="1"></path>
        <path d="M4 20.25a3.75 3.75 0 0 0 7.5 0V16.5H7.75A3.75 3.75 0 0 0 4 20.25Z" fill="#607B96"
              stroke-width="1"></path>
    </g>
</svg>