<svg xmlns="http://www.w3.org/2000/svg" viewBox="0 0 24 24" height="24" width="24"
     id="Technology-Head-Ai-Microchip--Streamline-Ultimate.svg">
    <g>
        <g>
            <path d="M19.1 0.46a0.74 0.74 0 0 0 -0.75 0.75V2a0.75 0.75 0 1 0 1.5 0v-0.79a0.75 0.75 0 0 0 -0.75 -0.75Z"
                  fill="#ffffff" stroke-width="1"></path>
            <path d="M16 0.46a0.75 0.75 0 0 0 -0.75 0.75V2a0.75 0.75 0 1 0 1.5 0v-0.79A0.74 0.74 0 0 0 16 0.46Z"
                  fill="#ffffff" stroke-width="1"></path>
            <path d="M12.91 0.46a0.75 0.75 0 0 0 -0.75 0.75V2a0.75 0.75 0 1 0 1.5 0v-0.79a0.75 0.75 0 0 0 -0.75 -0.75Z"
                  fill="#ffffff" stroke-width="1"></path>
            <path d="M9.81 4.33H9a0.75 0.75 0 0 0 0 1.5h0.77a0.75 0.75 0 0 0 0 -1.5Z" fill="#ffffff"
                  stroke-width="1"></path>
            <path d="M9.81 7.42H9a0.75 0.75 0 0 0 0 1.5h0.77a0.75 0.75 0 0 0 0 -1.5Z" fill="#ffffff"
                  stroke-width="1"></path>
            <path d="M9.81 10.51H9A0.75 0.75 0 0 0 9 12h0.77a0.75 0.75 0 0 0 0 -1.5Z" fill="#ffffff"
                  stroke-width="1"></path>
            <path d="M12.91 13.61a0.75 0.75 0 0 0 -0.75 0.75v0.77a0.75 0.75 0 0 0 1.5 0v-0.77a0.75 0.75 0 0 0 -0.75 -0.75Z"
                  fill="#ffffff" stroke-width="1"></path>
            <path d="M16 13.61a0.75 0.75 0 0 0 -0.75 0.75v0.77a0.75 0.75 0 1 0 1.5 0v-0.77a0.74 0.74 0 0 0 -0.75 -0.75Z"
                  fill="#ffffff" stroke-width="1"></path>
            <path d="M19.1 13.61a0.74 0.74 0 0 0 -0.75 0.75v0.77a0.75 0.75 0 1 0 1.5 0v-0.77a0.75 0.75 0 0 0 -0.75 -0.75Z"
                  fill="#ffffff" stroke-width="1"></path>
            <path d="M23 10.51h-0.77a0.75 0.75 0 0 0 0 1.5H23a0.75 0.75 0 0 0 0 -1.5Z" fill="#ffffff"
                  stroke-width="1"></path>
            <path d="M23 7.42h-0.77a0.75 0.75 0 0 0 0 1.5H23a0.75 0.75 0 0 0 0 -1.5Z" fill="#ffffff"
                  stroke-width="1"></path>
            <path d="M22.19 5.83H23a0.75 0.75 0 0 0 0 -1.5h-0.77a0.75 0.75 0 0 0 0 1.5Z" fill="#ffffff"
                  stroke-width="1"></path>
        </g>
        <g>
            <path d="M13.89 6.06h4.22v4.22h-4.22Z" fill="#ffffff" stroke-width="1"></path>
            <path d="M19.87 3.53h-7.73a0.78 0.78 0 0 0 -0.78 0.77V12a0.78 0.78 0 0 0 0.78 0.77h7.73a0.77 0.77 0 0 0 0.77 -0.77V4.3a0.77 0.77 0 0 0 -0.77 -0.77Zm-0.76 6.83a0.92 0.92 0 0 1 -0.92 0.92h-4.38a0.92 0.92 0 0 1 -0.92 -0.92V6a0.92 0.92 0 0 1 0.92 -0.92h4.38a0.92 0.92 0 0 1 0.92 0.92Z"
                  fill="#ffffff" stroke-width="1"></path>
        </g>
        <g>
            <path d="M17.48 16.92a0.76 0.76 0 0 0 -0.75 0.75v5.12a0.75 0.75 0 0 0 1.5 0v-5.12a0.75 0.75 0 0 0 -0.75 -0.75Z"
                  fill="#ffffff" stroke-width="1"></path>
            <path d="M8.07 0.89C3.71 2.64 2.24 7.33 0.83 11.87l-0.48 1.52a1.2 1.2 0 0 0 0.17 1.1 1.24 1.24 0 0 0 1 0.5h1.91v2.1A3.6 3.6 0 0 0 7 20.69h0.2v2.1a0.75 0.75 0 0 0 1.5 0v-2.85a0.75 0.75 0 0 0 -0.7 -0.75H7a2.1 2.1 0 0 1 -2.1 -2.1v-2.85a0.76 0.76 0 0 0 -0.75 -0.75H1.89c0.12 -0.39 0.24 -0.78 0.37 -1.17 1.37 -4.4 2.67 -8.55 6.37 -10A0.75 0.75 0 0 0 9 1.3a0.74 0.74 0 0 0 -0.93 -0.41Z"
                  fill="#ffffff" stroke-width="1"></path>
        </g>
    </g>
</svg>