<svg xmlns="http://www.w3.org/2000/svg" viewBox="0 0 24 24" height="24" width="24" id="Php-1--Streamline-Ultimate.svg">
    <desc>Php 1 Streamline Icon: https://streamlinehq.com</desc>
    <g>
        <path d="M6.5 12.13H5.38a0.26 0.26 0 0 0 -0.26 0.25v2.25a0.26 0.26 0 0 0 0.26 0.25H6.5a1.38 1.38 0 1 0 0 -2.75Z"
              fill="#607B96" stroke-width="1"></path>
        <path d="M18.5 12.13h-1.12a0.26 0.26 0 0 0 -0.26 0.25v2.25a0.26 0.26 0 0 0 0.26 0.25h1.12a1.38 1.38 0 1 0 0 -2.75Z"
              fill="#607B96" stroke-width="1"></path>
        <path d="M22.5 0h-21A1.5 1.5 0 0 0 0 1.5v21A1.5 1.5 0 0 0 1.5 24h21a1.5 1.5 0 0 0 1.5 -1.5v-21A1.5 1.5 0 0 0 22.5 0ZM6.4 16.13h-1a0.26 0.26 0 0 0 -0.26 0.25v3.12a0.62 0.62 0 1 1 -1.24 0v-8a0.62 0.62 0 0 1 0.62 -0.62h2A2.62 2.62 0 0 1 9.07 14a2.69 2.69 0 0 1 -2.67 2.13Zm8.72 3.37a0.62 0.62 0 1 1 -1.24 0v-3.12a0.26 0.26 0 0 0 -0.26 -0.25h-2.24a0.26 0.26 0 0 0 -0.26 0.25v3.12a0.62 0.62 0 1 1 -1.24 0v-8a0.62 0.62 0 0 1 1.24 0v3.13a0.26 0.26 0 0 0 0.26 0.25h2.24a0.26 0.26 0 0 0 0.26 -0.25V11.5a0.62 0.62 0 0 1 1.24 0Zm3.28 -3.37h-1a0.26 0.26 0 0 0 -0.26 0.25v3.12a0.62 0.62 0 1 1 -1.24 0v-8a0.62 0.62 0 0 1 0.62 -0.62h2A2.62 2.62 0 0 1 21.07 14a2.69 2.69 0 0 1 -2.67 2.13Z"
              fill="#607B96" stroke-width="1"></path>
    </g>
</svg>