<svg xmlns="http://www.w3.org/2000/svg" viewBox="0 0 24 24" height="24" width="24"
     id="Multiple-Users-2--Streamline-Ultimate.svg">
    <desc>Multiple Users 2 Streamline Icon: https://streamlinehq.com</desc>
    <g>
        <path d="M13 13.25v-2a1 1 0 0 0 -2 0v2a1 1 0 0 0 2 0Z" fill="#607B96" stroke-width="1"></path>
        <path d="M8.6 10.45a1 1 0 0 0 -1.4 0.2l-1.5 2a1 1 0 1 0 1.6 1.2l1.5 -2a1 1 0 0 0 -0.2 -1.4Z" fill="#607B96"
              stroke-width="1"></path>
        <path d="M18.1 14.05a1 1 0 0 0 0.2 -1.4l-1.5 -2a1 1 0 1 0 -1.6 1.2l1.5 2a1 1 0 0 0 1.4 0.2Z" fill="#607B96"
              stroke-width="1"></path>
        <path d="M3.5 20.15A2.2 2.2 0 1 0 1.3 18a2.19 2.19 0 0 0 2.2 2.15Z" fill="#607B96" stroke-width="1"></path>
        <path d="M3.5 21a3.59 3.59 0 0 0 -3.41 2.43 0.26 0.26 0 0 0 0.25 0.32h6.33a0.26 0.26 0 0 0 0.24 -0.32A3.59 3.59 0 0 0 3.5 21Z"
              fill="#607B96" stroke-width="1"></path>
        <path d="M18.3 17.95a2.2 2.2 0 1 0 4.4 0 2.2 2.2 0 1 0 -4.4 0" fill="#607B96" stroke-width="1"></path>
        <path d="M20.5 21a3.6 3.6 0 0 0 -3.41 2.47 0.26 0.26 0 0 0 0.24 0.33h6.33a0.26 0.26 0 0 0 0.25 -0.33A3.6 3.6 0 0 0 20.5 21Z"
              fill="#607B96" stroke-width="1"></path>
        <path d="M9.8 17.95a2.2 2.2 0 1 0 4.4 0 2.2 2.2 0 1 0 -4.4 0" fill="#607B96" stroke-width="1"></path>
        <path d="M12 21a3.6 3.6 0 0 0 -3.41 2.47 0.26 0.26 0 0 0 0.24 0.33h6.34a0.26 0.26 0 0 0 0.24 -0.33A3.6 3.6 0 0 0 12 21Z"
              fill="#607B96" stroke-width="1"></path>
        <path d="M9.8 2.45a2.2 2.2 0 1 0 4.4 0 2.2 2.2 0 1 0 -4.4 0" fill="#607B96" stroke-width="1"></path>
        <path d="M12 5.45a3.6 3.6 0 0 0 -3.41 2.47 0.26 0.26 0 0 0 0.25 0.33h6.33a0.25 0.25 0 0 0 0.24 -0.33A3.59 3.59 0 0 0 12 5.45Z"
              fill="#607B96" stroke-width="1"></path>
    </g>
</svg>