<svg xmlns="http://www.w3.org/2000/svg" viewBox="0 0 24 24" height="24" width="24"
     id="Unity-Logo--Streamline-Ultimate.svg">
    <path d="M23.23 14a1 1 0 0 0 -1.2 0.74l-1.35 5.59L16 12l4.73 -8.32L22 9.22a1 1 0 0 0 1 0.78l0.24 0A1 1 0 0 0 24 8.75L22 0.76a1 1 0 0 0 -0.14 -0.29l0 -0.07a1.08 1.08 0 0 0 -0.3 -0.26l-0.06 0a1 1 0 0 0 -0.32 -0.1h-0.09a1.05 1.05 0 0 0 -0.31 0L13 2.46a1 1 0 1 0 0.59 1.91l5.35 -1.67 -4.72 8.3H3.73l4.42 -3.74a1 1 0 0 0 -1.3 -1.53l-6.5 5.51a0.84 0.84 0 0 0 -0.18 0.23l-0.06 0.09A1 1 0 0 0 0 12a1 1 0 0 0 0.09 0.41l0.06 0.09a1.08 1.08 0 0 0 0.18 0.23l6.5 5.5a1 1 0 0 0 0.65 0.24 1 1 0 0 0 0.76 -0.36 1 1 0 0 0 -0.11 -1.41L3.73 13h10.49l4.72 8.3 -5.5 -1.71a1 1 0 1 0 -0.6 1.91l7.92 2.5a1.26 1.26 0 0 0 0.27 0 1.15 1.15 0 0 0 0.26 0 1.22 1.22 0 0 0 0.24 -0.1 1 1 0 0 0 0.3 -0.27s0 0 0 -0.07a0.92 0.92 0 0 0 0.14 -0.28l1.94 -8a1 1 0 0 0 -0.68 -1.28Z"
          fill="#607B96" stroke-width="1"></path>
</svg>