<svg xmlns="http://www.w3.org/2000/svg" fill="none" viewBox="0 0 24 24" height="24" width="24"
     id="Work-From-Home-User-Sofa--Streamline-Ultimate.svg">
    <path fill="#ffffff" fill-rule="evenodd"
          d="M11.8467 6.5395C14.1394 6.5395 15.5724 4.0575 14.426 2.072C13.894 1.1505 12.9108 0.5828 11.8467 0.5828C9.554 0.5828 8.1211 3.0648 9.2674 5.0503C9.7994 5.9718 10.7827 6.5395 11.8467 6.5395ZM10.854 16.9636H3.8092L1.1585 21.1283C0.5429 22.0953 1.2049 23.3661 2.3502 23.4158C2.7346 23.4324 3.1105 23.2997 3.3992 23.0453C3.0228 22.2076 3.0933 21.2366 3.5869 20.4621L5.0065 18.3137C5.2856 17.927 5.8786 17.9874 6.074 18.4224C6.1574 18.608 6.1443 18.8227 6.039 18.9968L4.6342 21.1283C4.046 22.1122 4.7435 23.3639 5.8897 23.3814C6.3921 23.389 6.8645 23.1428 7.146 22.7266L10.1819 17.9563H14.3287C15.1511 17.9564 15.8178 17.2897 15.8178 16.4672V11.5033C15.8186 8.4464 12.5098 6.5349 9.8621 8.0627C9.3177 8.3768 8.8557 8.8156 8.514 9.3431L8.5189 9.3609L9.2387 11.9997H10.8539C12.7645 11.9997 13.9587 14.068 13.0034 15.7226C12.56 16.4905 11.7406 16.9635 10.8539 16.9636ZM10.9999 19.4455L8.4713 23.4166H16.0233C15.887 23.1034 15.817 22.7654 15.8178 22.4238V19.0474C15.3652 19.3091 14.8515 19.4464 14.3287 19.4455H10.9999ZM17.307 13.615C17.8893 13.2086 18.5825 12.9912 19.2925 12.9925H21.7745V12.4961C21.7745 10.3029 19.9965 8.525 17.8034 8.525H16.4234C16.9823 9.3818 17.307 10.4043 17.307 11.5033V13.615ZM1.234 9.0214C0.5789 9.0206 0.1027 9.6433 0.275 10.2753L1.4226 14.4817C1.4226 15.0299 1.8671 15.4744 2.4154 15.4744H10.8539C11.6182 15.4745 12.0958 14.6472 11.7137 13.9853C11.5364 13.6781 11.2087 13.4889 10.8539 13.4889H8.101L7.0824 9.7531C6.9646 9.321 6.5722 9.0213 6.1244 9.0214H1.234ZM19.2925 14.4817C18.1959 14.4817 17.307 15.3706 17.307 16.4672V22.4238C17.307 22.9721 17.7515 23.4166 18.2997 23.4166H22.7672C23.3155 23.4166 23.76 22.9721 23.76 22.4238V16.4672C23.76 15.3706 22.871 14.4817 21.7744 14.4817H19.2925Z"
          clip-rule="evenodd" stroke-width="1"></path>
</svg>